<svg width="800" height="646" viewBox="0 0 800 646" fill="none" xmlns="http://www.w3.org/2000/svg">
<g clip-path="url(#clip0_2969_10088)">
<path d="M663.933 491.03C665.63 493.971 665.63 497.481 663.933 500.421C662.237 503.358 659.194 505.115 655.801 505.115H619.251C621.622 502.193 623.96 499.241 626.218 496.229C627.093 496.817 628.148 497.164 629.283 497.164C632.314 497.164 634.772 494.706 634.772 491.675C634.772 489.895 633.913 488.335 632.604 487.332C638.033 479.49 643.104 471.381 647.752 463.004L663.933 491.03ZM561.306 86.4156C560.929 86.1479 560.544 85.8916 560.167 85.6239L561.306 82.9283V86.4156ZM692.797 322.808C689.513 319.826 686.512 316.689 683.737 313.386C681.34 238.985 650.851 171.686 602.523 121.741V2.78125H556.729L529.592 66.9585C507.847 55.4637 484.469 46.6456 459.884 40.9755C457.174 31.6221 452.823 23.7163 446.814 17.2809C435.866 5.58246 420.095 -0.276184 399.485 -0.276184C378.878 -0.276184 363.098 5.58246 352.162 17.2809C346.617 23.2149 342.485 30.3892 339.751 38.8039C322.221 42.1705 305.249 47.1018 288.998 53.4769V2.78125H243.202L224.907 46.0462L197.29 111.358C140.716 164.161 105.332 239.381 105.332 322.872C105.332 389.209 127.685 450.31 165.239 499.109C164.773 499.611 164.295 500.105 163.844 500.614C163.628 500.859 163.436 501.115 163.227 501.364C162.935 500.975 162.642 500.587 162.346 500.203C160.629 497.963 158.639 495.09 155.766 493.76C154.132 493.002 151.657 492.802 150.048 493.76C147.721 495.147 146.104 497.266 144.338 499.113C142.599 500.934 140.859 502.759 139.121 504.58C137.237 506.551 136.773 509.221 139.121 511.143C141.081 512.753 145.235 513.13 147.132 511.143L151.852 506.201C152.166 505.873 152.479 505.545 152.792 505.217C153.242 505.809 153.7 506.397 154.151 506.992C155.962 509.379 158.174 512.987 161.708 513.786C166.786 514.932 169.391 510.521 171.646 507.671C171.715 507.584 171.795 507.505 171.864 507.418C183.817 521.831 197.131 535.068 211.626 546.921L201.107 551.064C198.049 552.267 195.755 553.888 194.227 555.72C192.698 557.552 191.936 559.592 191.938 561.631C191.938 562.14 191.987 562.649 192.083 563.155C192.083 563.158 192.085 563.162 192.086 563.166C192.172 563.618 192.309 564.067 192.47 564.512C192.519 564.644 192.578 564.776 192.634 564.908C192.772 565.236 192.931 565.56 193.113 565.884C193.185 566.012 193.253 566.14 193.333 566.269C193.598 566.698 193.889 567.117 194.231 567.528C194.234 567.532 194.236 567.535 194.239 567.539C195.579 569.138 197.542 570.563 200.053 571.701C200.412 571.863 200.746 572.041 201.129 572.188L384.736 644.229C387.617 645.36 390.844 645.937 394.086 645.993C394.263 645.997 394.44 646.02 394.621 646.02C397.185 646.02 399.756 645.684 402.158 645.013C402.961 644.791 403.745 644.531 404.503 644.229L432.095 633.405L473.483 617.168L588.111 572.188C591.172 570.989 593.468 569.368 595.002 567.539C596.152 566.167 596.868 564.678 597.159 563.155C597.253 562.649 597.302 562.14 597.302 561.631C597.309 557.552 594.252 553.469 588.133 551.064L577.615 546.925C592.19 535.004 605.573 521.677 617.577 507.173H655.801C659.941 507.173 663.647 505.032 665.717 501.45C667.783 497.865 667.783 493.582 665.717 490.001L648.898 460.874C670.376 421.39 682.919 376.357 683.828 328.463C684.152 328.764 684.457 329.077 684.785 329.371C686.836 331.237 690.712 331.083 692.797 329.371C695.055 327.52 694.851 324.674 692.797 322.808Z" fill="#360760"/>
<path d="M562.803 183.302V184.802H561.303H518.939H516.678L517.557 182.718L559.921 82.345L562.803 82.9283V183.302ZM602.521 184.802H601.021V183.302V4.28122H557.721L481.895 183.606V219.966H561.303H562.803V221.466V268.437H601.021V221.466V219.966H602.521H620.87V184.802H602.521Z" fill="#F2E7FC" stroke="#5C0BA3" stroke-width="3"/>
<path d="M205.416 184.802H203.155L204.034 182.718L246.034 83.2083L247.145 80.5753L248.681 82.9856L249.044 83.5549L249.279 83.9236V84.3609V183.302V184.802H247.779H205.416ZM168.367 219.966H247.779H249.279V221.466V268.437H287.497V221.466V219.966H288.997H307.344V184.802H288.997H287.497V183.302V4.28122H244.194L226.287 46.6303L168.367 183.606V219.966Z" fill="#F2E7FC" stroke="#5C0BA3" stroke-width="3"/>
<path d="M503.591 519.404L502.952 519.153L502.725 518.505L498.239 505.701L475.856 441.826L470.292 425.95L416.372 272.078L416.369 272.069L416.244 271.72L415.665 270.104L417.345 269.747C429.048 267.266 438.485 262.146 445.718 254.409C456.318 243.067 461.721 226.942 461.721 205.82V66.8982C461.721 45.7772 456.319 29.6557 445.718 18.3058C435.129 6.99091 419.805 1.22382 399.485 1.22382C379.168 1.22382 363.834 6.99115 353.258 18.3052C342.651 29.6548 337.251 45.7764 337.251 66.8982V205.597L337.263 205.609L337.265 206.229C337.338 227.149 342.724 243.144 353.258 254.409L353.258 254.41C358.627 260.156 365.219 264.441 373.039 267.283L374.435 267.79L373.941 269.191L361.568 304.294L360.154 303.795L361.568 304.294L356.525 318.598L346.438 347.208L313.111 441.745L313.111 441.746L309.728 451.344L308.314 450.845L309.728 451.344L302.962 470.541L298.654 482.76L285.978 518.718L285.751 519.364L285.113 519.615L201.657 552.46L201.656 552.46C195.877 554.732 193.434 558.387 193.438 561.63V561.631C193.438 562.044 193.477 562.459 193.556 562.873L193.557 562.875C193.793 564.121 194.386 565.379 195.389 566.576L195.389 566.576C196.728 568.175 198.8 569.664 201.676 570.791L201.677 570.791L385.284 642.833L385.285 642.833C388.131 643.952 391.365 644.52 394.621 644.52C397.874 644.52 401.108 643.952 403.954 642.833L403.955 642.833L472.935 615.771L587.563 570.791L587.563 570.791C593.348 568.522 595.799 564.871 595.803 561.628C595.807 558.387 593.365 554.734 587.584 552.46L588.133 551.064L587.584 552.46L503.591 519.404ZM336.824 205.172L336.83 205.179C336.828 205.176 336.826 205.174 336.824 205.172ZM376.232 64.2252C376.232 55.2777 378.074 48.2887 382.014 43.5192C386 38.6948 391.92 36.3916 399.485 36.3916C407.051 36.3916 412.972 38.6947 416.958 43.5191C420.899 48.2886 422.742 55.2777 422.742 64.2252V208.489C422.742 217.437 420.899 224.426 416.958 229.195C412.972 234.02 407.051 236.323 399.485 236.323C391.92 236.323 386 234.02 382.014 229.195C378.074 224.426 376.232 217.437 376.232 208.489V64.2252Z" fill="#F2E7FC" stroke="#5C0BA3" stroke-width="3"/>
<path d="M588.133 551.064L504.14 518.008L499.654 505.205L477.271 441.33L411.122 252.572C408.823 245.662 402.301 240.681 394.617 240.681C387.79 240.681 381.882 244.617 379.036 250.348C379.024 250.37 379.013 250.397 378.998 250.419C378.975 250.472 378.949 250.521 378.923 250.574C378.904 250.615 378.885 250.657 378.866 250.702C378.847 250.74 378.828 250.781 378.81 250.819C378.772 250.906 378.734 250.989 378.697 251.072C378.685 251.098 378.674 251.121 378.663 251.143C378.636 251.211 378.606 251.279 378.58 251.343C378.565 251.381 378.549 251.415 378.534 251.452C378.508 251.513 378.482 251.577 378.459 251.641C378.44 251.682 378.421 251.728 378.406 251.773C378.384 251.829 378.361 251.882 378.342 251.939C378.316 252.01 378.289 252.082 378.263 252.154C378.244 252.203 378.229 252.252 378.21 252.301C378.18 252.384 378.15 252.466 378.123 252.549C378.108 252.595 378.093 252.636 378.082 252.681C378.059 252.745 378.037 252.813 378.018 252.881C378.007 252.919 377.992 252.96 377.98 253.002C377.958 253.07 377.939 253.141 377.916 253.209C377.905 253.251 377.893 253.292 377.882 253.334C377.86 253.405 377.841 253.481 377.822 253.556C377.811 253.59 377.803 253.628 377.792 253.662C377.765 253.771 377.735 253.88 377.709 253.99L360.153 303.795L345.024 346.71L311.697 441.247H311.696L301.547 470.042L284.563 518.22L201.107 551.064C188.871 555.878 188.883 567.384 201.129 572.188L384.736 644.229C390.813 646.615 398.429 646.615 404.502 644.229L473.483 617.168L588.11 572.188C600.355 567.384 600.37 555.878 588.133 551.064Z" fill="#C591F3"/>
<path d="M511.372 538.634L504.141 518.009L499.655 505.206C479.587 516.621 440.454 524.395 395.398 524.482C403.444 545.368 414.452 564.847 429.363 581.458V581.462C478.335 576.881 513.973 562.872 513.973 546.303C513.973 543.671 513.076 541.108 511.372 538.634Z" fill="#FCE6F3"/>
<path d="M426.737 450.22C436.724 473.571 446.549 487.871 452.796 486.174C458.692 484.568 460.117 469.021 457.542 446.05C464.653 444.689 471.261 443.105 477.271 441.33L453.497 373.492C449.957 374.114 446.304 374.679 442.553 375.185C433.55 344.455 422.884 318.804 413.825 304.874C418.594 304.636 423.258 304.304 427.819 303.897C428.181 303.743 428.566 303.618 428.981 303.535L411.122 252.572C408.822 245.662 402.3 240.681 394.621 240.681C393.237 240.681 391.902 240.855 390.617 241.156C387.654 262.434 384.524 283.75 381.859 305.115C381.859 305.126 381.855 305.134 381.855 305.141C386.048 305.277 390.308 305.349 394.621 305.349C394.734 305.349 394.847 305.349 394.956 305.349C393.214 319.988 396.321 346.917 403.68 378.163C400.69 378.231 397.667 378.269 394.621 378.269C388.114 378.269 381.731 378.106 375.51 377.801C374.925 393.349 374.949 408.923 375.839 424.519C376.34 433.307 377.094 442.238 378.153 451.211C378.153 451.211 378.153 451.215 378.153 451.219C383.537 451.445 389.033 451.565 394.621 451.565C405.746 451.565 416.517 451.094 426.737 450.22Z" fill="#FCE6F3"/>
<path d="M381.859 305.115C384.524 283.75 387.653 262.431 390.616 241.156C385.267 242.419 380.867 246.144 378.696 251.072C378.684 251.098 378.673 251.121 378.662 251.143C378.635 251.211 378.605 251.279 378.579 251.343C378.564 251.381 378.549 251.415 378.533 251.452C378.507 251.513 378.481 251.577 378.458 251.641C378.439 251.682 378.42 251.728 378.405 251.773C378.383 251.829 378.36 251.882 378.341 251.939C378.315 252.01 378.288 252.082 378.262 252.154C378.243 252.203 378.228 252.252 378.209 252.301C378.179 252.384 378.149 252.467 378.123 252.549C378.107 252.595 378.092 252.636 378.081 252.681C378.058 252.746 378.036 252.813 378.017 252.881C378.006 252.919 377.991 252.96 377.979 253.002C377.957 253.07 377.938 253.141 377.915 253.209C377.904 253.251 377.893 253.292 377.881 253.334C377.862 253.405 377.84 253.481 377.821 253.556C377.81 253.59 377.802 253.628 377.791 253.662C377.764 253.771 377.734 253.88 377.708 253.99L360.152 303.795C367.131 304.44 374.404 304.874 381.859 305.115Z" fill="#F1CCE2"/>
<path d="M375.509 377.801C375.509 377.797 375.509 377.797 375.509 377.797C361.192 377.089 347.724 375.596 335.59 373.466L311.695 441.247C329.443 446.529 352.499 450.118 378.151 451.211C377.092 442.239 376.338 433.307 375.836 424.519C374.948 408.923 374.923 393.349 375.509 377.801Z" fill="#F1CCE2"/>
<path d="M395.397 524.478C395.137 524.478 394.88 524.482 394.616 524.482C348.963 524.482 309.296 516.591 289.223 504.998L284.563 518.22L276.618 540.753C275.728 542.563 275.266 544.414 275.266 546.303C275.266 566.593 328.702 583.042 394.616 583.042C406.703 583.042 418.368 582.487 429.361 581.458C414.451 564.847 403.442 545.368 395.397 524.482C395.397 524.482 395.397 524.482 395.397 524.478Z" fill="#F1CCE2"/>
<path d="M457.543 446.05C455.621 428.892 451.47 407.596 445.291 384.877C444.397 381.597 443.485 378.363 442.554 375.185C433.551 344.455 422.886 318.804 413.826 304.874C408.639 296.904 403.983 292.772 400.461 293.729C397.574 294.517 395.756 298.642 394.957 305.349C393.215 319.988 396.322 346.917 403.681 378.163C404.982 383.663 406.407 389.3 407.964 395.026C413.664 415.98 420.235 435.015 426.739 450.22C436.725 473.571 446.55 487.871 452.797 486.174C458.693 484.568 460.118 469.021 457.543 446.05Z" fill="white"/>
<path d="M413.826 304.874C408.638 296.904 403.982 292.772 400.461 293.729C397.57 294.517 395.756 298.642 394.957 305.349C401.377 305.341 407.681 305.183 413.826 304.874Z" fill="#FCE6F3"/>
<path d="M403.684 378.163C404.977 383.667 406.406 389.3 407.963 395.027C413.663 415.98 420.234 435.015 426.737 450.22C437.727 449.277 448.076 447.86 457.542 446.05C455.619 428.893 451.469 407.596 445.29 384.878C444.396 381.598 443.484 378.363 442.553 375.185C430.507 376.814 417.418 377.847 403.684 378.163Z" fill="#FCE6F3"/>
<path d="M221.345 370.808C217.95 370.808 214.91 372.564 213.213 375.501L186.694 421.435C184.997 424.376 184.997 427.886 186.694 430.826C188.391 433.767 191.432 435.52 194.826 435.52H247.863C251.258 435.52 254.298 433.767 255.996 430.826C257.693 427.886 257.693 424.376 255.996 421.435L229.476 375.501C227.78 372.564 224.74 370.808 221.345 370.808ZM247.863 437.579H194.826C190.687 437.579 186.981 435.437 184.912 431.856C182.842 428.27 182.842 423.991 184.911 420.406L211.43 374.476C213.5 370.891 217.207 368.749 221.345 368.749C225.484 368.749 229.19 370.891 231.26 374.476L257.778 420.406C259.847 423.991 259.847 428.27 257.778 431.856C255.709 435.437 252.002 437.579 247.863 437.579Z" fill="#AB5FEE"/>
<path d="M226.835 422.08C226.835 425.111 224.377 427.569 221.345 427.569C218.313 427.569 215.855 425.111 215.855 422.08C215.855 419.049 218.313 416.591 221.345 416.591C224.377 416.591 226.835 419.049 226.835 422.08Z" fill="#F2E7FC"/>
<path d="M222.549 384.308H220.146C217.9 384.308 216.114 386.193 216.236 388.436L217.438 410.566C217.551 412.644 219.268 414.269 221.347 414.269C223.427 414.269 225.144 412.644 225.257 410.566L226.458 388.436C226.58 386.193 224.795 384.308 222.549 384.308Z" fill="#F2E7FC"/>
<path d="M629.283 440.402C625.886 440.402 622.847 442.159 621.151 445.096L594.632 491.03C592.932 493.971 592.932 497.481 594.632 500.421C596.329 503.358 599.368 505.115 602.764 505.115H655.801C659.194 505.115 662.237 503.358 663.933 500.421C665.63 497.481 665.63 493.971 663.933 491.03L637.415 445.096C635.718 442.159 632.676 440.402 629.283 440.402ZM655.801 507.173H602.764C598.625 507.173 594.919 505.032 592.849 501.45C590.779 497.865 590.779 493.582 592.849 490.001L619.368 444.067C621.437 440.485 625.143 438.344 629.283 438.344C633.422 438.344 637.128 440.485 639.198 444.067L665.716 490.001C667.786 493.582 667.786 497.865 665.716 501.45C663.647 505.032 659.941 507.173 655.801 507.173Z" fill="#AB5FEE"/>
<path d="M629.282 496.664C632.037 496.664 634.271 494.43 634.271 491.675C634.271 488.916 632.037 486.682 629.282 486.682C626.527 486.682 624.293 488.916 624.293 491.675C624.293 494.43 626.527 496.664 629.282 496.664Z" fill="#F2E7FC" stroke="#5C0BA3"/>
<path d="M630.485 453.903H628.079C625.832 453.903 624.049 455.788 624.17 458.031L625.372 480.161C625.486 482.238 627.201 483.863 629.282 483.863C631.359 483.863 633.078 482.238 633.192 480.161L634.39 458.031C634.515 455.788 632.728 453.903 630.485 453.903Z" fill="#F2E7FC"/>
<path d="M692.794 322.808C689.194 319.535 685.91 316.09 682.921 312.429C681.085 310.186 676.474 309.017 674.023 311.49C671.999 313.53 669.978 315.581 668.097 317.711C667.882 317.956 667.69 318.212 667.479 318.461C667.188 318.073 666.894 317.684 666.6 317.296C664.881 315.06 662.891 312.188 660.018 310.857C658.385 310.099 655.909 309.896 654.302 310.857C651.976 312.244 650.359 314.359 648.591 316.21C647.777 317.062 646.966 317.914 646.152 318.766C644.146 316.715 642.212 314.623 640.421 312.429C638.585 310.186 633.974 309.017 631.524 311.49C629.499 313.53 627.479 315.581 625.594 317.711C625.379 317.956 625.187 318.212 624.979 318.461C624.685 318.073 624.395 317.684 624.097 317.296C622.382 315.06 620.391 312.188 617.518 310.857C615.882 310.099 613.409 309.896 611.799 310.857C609.473 312.244 607.856 314.359 606.088 316.21C604.35 318.031 602.612 319.852 600.874 321.677C598.989 323.649 598.525 326.318 600.874 328.24C602.83 329.846 606.989 330.227 608.881 328.24L613.605 323.298C613.918 322.97 614.231 322.642 614.544 322.31C614.992 322.906 615.452 323.494 615.901 324.09C617.711 326.476 619.924 330.084 623.46 330.883C628.538 332.029 631.143 327.615 633.398 324.768C634.016 323.988 634.691 323.249 635.354 322.502C637.552 324.866 639.852 327.166 642.28 329.371C644.331 331.238 648.206 331.083 650.291 329.371C650.653 329.077 650.928 328.753 651.166 328.414C651.234 328.354 651.32 328.308 651.384 328.24L656.105 323.298C656.417 322.97 656.73 322.642 657.047 322.31C657.496 322.906 657.952 323.494 658.404 324.09C660.214 326.476 662.427 330.084 665.963 330.883C671.041 332.029 673.643 327.615 675.901 324.768C676.516 323.988 677.194 323.249 677.858 322.502C680.052 324.866 682.355 327.166 684.783 329.371C686.834 331.238 690.71 331.083 692.794 329.371C695.053 327.52 694.849 324.674 692.794 322.808Z" fill="#AB5FEE"/>
<path d="M231.04 505.711C227.441 502.438 224.158 498.993 221.168 495.336C219.333 493.089 214.722 491.924 212.271 494.393C210.247 496.437 208.226 498.484 206.343 500.614C206.128 500.859 205.936 501.115 205.726 501.364C205.435 500.976 205.142 500.587 204.845 500.203C203.128 497.963 201.139 495.091 198.265 493.76C196.631 493.006 194.157 492.802 192.548 493.76C190.221 495.147 188.604 497.266 186.838 499.113C186.025 499.965 185.211 500.817 184.399 501.669C182.392 499.622 180.459 497.526 178.666 495.336C176.832 493.089 172.22 491.924 169.769 494.393C167.745 496.437 165.724 498.484 163.842 500.614C163.626 500.859 163.434 501.115 163.224 501.364C162.933 500.976 162.64 500.587 162.344 500.203C160.627 497.963 158.637 495.091 155.764 493.76C154.13 493.006 151.655 492.802 150.046 493.76C147.72 495.147 146.102 497.266 144.336 499.113C142.597 500.934 140.858 502.759 139.119 504.58C137.235 506.551 136.771 509.221 139.119 511.143C141.079 512.753 145.234 513.13 147.129 511.143L151.85 506.201C152.164 505.873 152.476 505.545 152.79 505.217C153.24 505.809 153.698 506.397 154.149 506.993C155.959 509.379 158.172 512.987 161.706 513.786C166.784 514.932 169.389 510.521 171.644 507.671C172.262 506.895 172.938 506.156 173.602 505.405C175.799 507.773 178.1 510.069 180.527 512.278C182.577 514.141 186.453 513.986 188.539 512.278C188.898 511.98 189.174 511.656 189.411 511.317C189.48 511.257 189.566 511.211 189.632 511.143L194.351 506.201C194.666 505.873 194.979 505.545 195.292 505.217C195.741 505.809 196.2 506.397 196.65 506.993C198.461 509.379 200.673 512.987 204.208 513.786C209.286 514.932 211.891 510.521 214.147 507.671C214.763 506.895 215.44 506.156 216.104 505.405C218.3 507.773 220.601 510.069 223.029 512.278C225.079 514.141 228.956 513.986 231.04 512.278C233.3 510.423 233.094 507.577 231.04 505.711Z" fill="#9A40EA"/>
<path d="M543.732 399.166C543.732 402.649 540.908 405.473 537.425 405.473C533.945 405.473 531.121 402.649 531.121 399.166C531.121 395.686 533.945 392.862 537.425 392.862C540.908 392.862 543.732 395.686 543.732 399.166Z" fill="#F2E7FC"/>
<path d="M538.831 356.176H536.071C533.492 356.176 531.441 358.344 531.581 360.919L532.961 386.337C533.093 388.719 535.064 390.585 537.451 390.585C539.841 390.585 541.813 388.719 541.941 386.337L543.321 360.919C543.46 358.344 541.409 356.176 538.831 356.176Z" fill="#F2E7FC"/>
<path d="M209.867 312.908C209.867 316.391 207.045 319.211 203.562 319.211C200.081 319.211 197.258 316.391 197.258 312.908C197.258 309.424 200.081 306.604 203.562 306.604C207.045 306.604 209.867 309.424 209.867 312.908Z" fill="#F2E7FC"/>
<path d="M204.94 269.53H202.18C199.601 269.53 197.55 271.694 197.69 274.269L199.071 299.686C199.2 302.073 201.172 303.939 203.56 303.939C205.949 303.939 207.92 302.073 208.05 299.686L209.43 274.269C209.57 271.694 207.519 269.53 204.94 269.53Z" fill="#F2E7FC"/>
<path d="M136.102 88.3912H123.277V75.5656H122.278V88.3912H109.453V89.3902H122.278V102.216H123.277V89.3902H136.102V88.3912Z" fill="#AB5FEE"/>
<path d="M714.838 545.439H702.012V532.617H701.013V545.439H688.188V546.438H701.013V559.264H702.012V546.438H714.838V545.439Z" fill="#AB5FEE"/>
<path d="M710.058 119.068C716.109 119.068 716.12 109.662 710.058 109.662C704.007 109.662 703.996 119.068 710.058 119.068Z" fill="#AB5FEE"/>
<path d="M90.597 462.989C96.6482 462.989 96.6584 453.586 90.597 453.586C84.5457 453.586 84.5355 462.989 90.597 462.989Z" fill="#AB5FEE"/>
<path d="M94.6187 142.861C97.6445 142.861 97.6494 138.159 94.6187 138.159C91.5933 138.159 91.588 142.861 94.6187 142.861Z" fill="#AB5FEE"/>
<path d="M726.151 468.681C729.174 468.681 729.182 463.98 726.151 463.98C723.123 463.98 723.12 468.681 726.151 468.681Z" fill="#AB5FEE"/>
<path d="M235.408 627.569C238.433 627.569 238.438 622.868 235.408 622.868C232.382 622.868 232.377 627.569 235.408 627.569Z" fill="#AB5FEE"/>
<path d="M486.811 6.09912C489.835 6.09912 489.842 1.39793 486.811 1.39793C483.784 1.39793 483.78 6.09912 486.811 6.09912Z" fill="#AB5FEE"/>
</g>
<defs>
<clipPath id="clip0_2969_10088">
<rect width="800" height="646" fill="white"/>
</clipPath>
</defs>
</svg>
